<?xml version="1.0" encoding="utf-8"?>
<!-- Generator: Adobe Illustrator 15.0.2, SVG Export Plug-In . SVG Version: 6.00 Build 0)  -->
<!DOCTYPE svg PUBLIC "-//W3C//DTD SVG 1.1//EN" "http://www.w3.org/Graphics/SVG/1.1/DTD/svg11.dtd">
<svg version="1.1" id="Layer_1" xmlns="http://www.w3.org/2000/svg" xmlns:xlink="http://www.w3.org/1999/xlink" x="0px" y="0px"
	 width="455.934px" height="171.012px" viewBox="0 0 455.934 171.012" enable-background="new 0 0 455.934 171.012"
	 xml:space="preserve">
<g id="Logo">
	<g>
		<path fill="#2B2D2D" d="M38.706,78.199c-2.471-1.079-6.476-2.005-9.718-2.005c-5.548,0-10.945,3.701-10.945,27.134
			c0,20.973,2.155,24.205,9.717,24.205c2.926,0,8.015-0.92,10.479-2.154c0.929,3.853,1.386,8.015,1.386,10.329
			c0,3.854-6.936,7.096-13.72,7.096C6.945,142.803,0,138.171,0,103.634c0-37.003,14.649-42.551,27.45-42.551
			c6.168,0,12.794,2.926,12.794,5.708C40.244,69.407,39.785,74.497,38.706,78.199z"/>
		<path fill="#2B2D2D" d="M46.872,34.721c0-7.557,3.085-7.557,17.273-7.557v39.467c3.544-3.539,9.562-5.398,14.649-5.398
			c11.875,0,14.181,4.164,14.181,30.379v45.79c0,3.084,0.928,3.084-17.883,3.084V94.693c0-13.569-0.309-17.573-4.16-17.573
			c-2.627,0-4.628,0.46-6.787,1.848v58.435c0,3.084,0,3.084-17.273,3.084V34.721z"/>
		<path fill="#2B2D2D" d="M100.841,69.874c0-1.853,0.308-4.009,1.695-5.088c1.854-1.545,11.105-3.702,27.14-3.702
			c10.481,0,15.728,4.929,15.728,18.812v8.015c0,26.364-0.776,49.954-0.776,49.954c-5.24,3.083-12.943,4.939-22.201,4.939
			c-11.407,0-21.895-0.771-21.895-24.828c0-21.126,8.638-25.438,17.114-25.438c2.933,0,7.711,0.459,10.485,2.315
			c0,0,0-7.093,0-11.416c0-4.007-1.697-5.699-5.087-5.699c-5.858,0-14.8,1.388-19.891,3.235
			C100.999,77.428,100.841,71.103,100.841,69.874z M128.131,106.409c-1.078-1.077-2.774-1.227-4.011-1.227
			c-3.385,0-5.39,2.464-5.39,12.334c0,10.176,0.771,11.099,4.62,11.099c1.081,0,3.554-0.311,4.473-1.539
			C127.823,127.076,128.131,117.207,128.131,106.409z"/>
		<path fill="#2B2D2D" d="M154.655,66.172c4.78-2.314,16.185-5.089,25.437-5.089c18.352,0,20.665,6.786,20.665,27.442v48.876
			c0,3.084,0.15,3.084-17.89,3.084V88.068c0-8.021-0.77-12.186-5.09-12.186c-1.998,0-4.16,0.771-5.857,2.316v59.203
			c0,3.084,0.308,3.084-17.265,3.084V66.172z"/>
		<path fill="#2B2D2D" d="M261.504,62.473c0.924,1.847,1.854,4.621,1.854,8.479c0,4.473-2.316,6.32-5.398,6.32
			c-1.076,0-2.158-0.152-3.393-0.459c2.467,3.701,3.854,8.631,3.854,14.799c0,16.653-7.087,25.134-24.977,25.134
			c-1.537,0-2.775,0-4.164-0.158c-0.926,1.388-1.846,3.084-1.846,4.322c0,2.461,5.859,1.695,15.258,3.234
			c9.559,1.545,18.35,6.941,18.35,19.117c0,15.109-8.481,27.751-29.296,27.751c-21.117,0-24.978-9.71-24.978-17.572
			c0-7.245,4.161-13.104,10.33-17.425c-5.393-1.695-8.475-4.627-8.164-9.559c0.148-3.393,5.079-9.711,9.559-13.571
			c-6.635-4.62-9.1-12.642-9.1-22.353c0-21.894,9.869-29.449,26.055-29.449c2.313,0,5.088,0.461,7.713,1.39H261.504z
			 M224.658,148.968c0,3.853,1.998,6.016,8.943,6.016c7.553,0,9.867-5.553,9.867-9.258c0-4.779-1.087-6.776-12.953-7.862
			C227.124,140.486,224.658,144.5,224.658,148.968z M234.68,73.259c-4.164,0-6.938,3.554-6.938,15.728
			c0,10.947,1.537,14.959,6.477,14.959c4.619,0,6.776-3.702,6.776-17.733C240.995,76.501,239.301,73.259,234.68,73.259z"/>
		<path fill="#2B2D2D" d="M313.157,86.989c0,7.395-0.613,15.877-2.159,21.897c-7.555,1.535-19.119,2.154-26.826,2.305
			c0.463,12.494,2.311,14.806,8.326,14.806c7.402,0,12.798-1.696,18.193-4.321c0.924,3.086,1.385,10.331,1.385,15.271
			c0,2.464-9.865,5.857-21.895,5.857c-14.028,0-23.897-5.71-23.897-37.162c0-38.547,12.642-44.558,27.143-44.558
			C305.761,61.083,313.157,69.1,313.157,86.989z M284.172,97.627c4.314,0,9.094-0.311,11.41-1.389
			c0.619-1.855,0.768-5.557,0.768-8.02c0-9.869-1.387-12.176-5.239-12.176C286.331,76.043,284.635,83.437,284.172,97.627z"/>
	</g>
	<g>
		<path fill="#646868" d="M338.6,137.402c0,3.084,0,3.084-17.271,3.084V34.721c0-7.557,3.243-7.557,17.271-7.557V137.402z"/>
		<path fill="#646868" d="M371.598,61.233c16.498,0,24.053,8.793,24.053,39.938c0,29.756-8.633,42.09-25.285,42.09
			c-16.656,0-24.359-6.936-24.359-41.473C346.006,73.877,355.256,61.233,371.598,61.233z M370.822,128.921
			c2.934,0,5.861-3.543,5.861-27.291c0-22.2-1.23-25.587-5.703-25.587c-3.389,0-6.016,3.691-6.016,25.587
			C364.965,125.689,366.972,128.921,370.822,128.921z"/>
		<path fill="#646868" d="M454.09,62.473c0.924,1.847,1.844,4.621,1.844,8.479c0,4.473-2.307,6.32-5.393,6.32
			c-1.08,0-2.16-0.152-3.393-0.459c2.469,3.701,3.855,8.631,3.855,14.799c0,16.653-7.094,25.134-24.979,25.134
			c-1.545,0-2.773,0-4.162-0.158c-0.924,1.388-1.854,3.084-1.854,4.322c0,2.461,5.859,1.695,15.268,3.234
			c9.561,1.545,18.35,6.941,18.35,19.117c0,15.109-8.48,27.751-29.295,27.751c-21.127,0-24.98-9.71-24.98-17.572
			c0-7.245,4.164-13.104,10.332-17.425c-5.4-1.695-8.482-4.627-8.176-9.559c0.152-3.393,5.092-9.711,9.562-13.571
			c-6.627-4.62-9.1-12.642-9.1-22.353c0-21.894,9.867-29.449,26.062-29.449c2.307,0,5.086,0.461,7.703,1.39H454.09z
			 M417.236,148.968c0,3.853,2.008,6.016,8.939,6.016c7.557,0,9.869-5.553,9.869-9.258c0-4.779-1.076-6.776-12.949-7.862
			C419.699,140.486,417.236,144.5,417.236,148.968z M427.256,73.259c-4.16,0-6.936,3.554-6.936,15.728
			c0,10.947,1.543,14.959,6.475,14.959c4.621,0,6.787-3.702,6.787-17.733C433.582,76.501,431.887,73.259,427.256,73.259z"/>
	</g>
	<g>
		<path fill="#646868" d="M98.438,0h0.457c1.692,0,2.927,0.83,3.724,2.475c-1.511,8.908-2.26,15.918-2.26,21.019v4.63l1.584,0.112
			c3.319,0,7.005-0.509,11.05-1.513l1.579-0.105h0.335c1.735,0,2.595,0.789,2.595,2.372c0,2.335-1.656,3.735-4.958,4.198
			c-1.526,0.342-5.324,0.736-11.397,1.191c0,0.14-0.264,0.211-0.787,0.211v0.32l0.678,6.791c0,1.006-0.23,1.909-0.678,2.695
			c0.523,0.595,0.787,1.453,0.787,2.591v1.075c0,2.46-0.264,3.791-0.787,3.983l-2.937-0.209c-0.354,0-0.769,0.243-1.235,0.751
			c-2.028-0.79-3.044-3.918-3.044-9.372c0-4.892-0.268-7.333-0.795-7.333c-0.698-0.716-3.102-1.076-7.219-1.076
			c-1.911,0-3.229-0.937-3.943-2.801v-0.321c0.941-1.944,3.045-2.915,6.312-2.915c1.729,0.07,2.598,0.185,2.598,0.324
			c0.584,0,0.997-0.463,1.244-1.402l0.336-0.215h1.01l-0.112-1.402c0-6.387,0.678-14.473,2.031-24.246
			C95.602,0.614,96.884,0,98.438,0z"/>
		<path fill="#646868" d="M118.601,7.008h0.229c1.278,0.623,1.92,1.094,1.92,1.4c-1.208,7.884-1.811,16.397-1.811,25.533v0.543
			l0.117,2.912c1.236-0.971,3.001-4.531,5.298-10.674c0.979-2.012,1.921-3.02,2.818-3.02c1.372-0.788,2.313-1.182,2.825-1.182h0.561
			c0.886,0,1.561,0.824,2.028,2.477c0.961,2.303,2.012,6.791,3.155,13.477c0.833,3.227,1.737,5.668,2.71,7.323
			c0.658,1.095,1.637,2.214,2.936,3.343v0.104c-0.979,1.33-1.995,2.229-3.047,2.696c-1.562,0-3.439-0.902-5.634-2.696
			c-1.227-1.419-2.242-3.396-3.048-5.925l-1.81-8.084c-1.09,1.33-2.854,4.926-5.297,10.777c-1.373,2.619-2.801,4.631-4.29,6.032
			h-0.787c-0.767,0-1.747-0.604-2.936-1.829l-1.127-0.543l0.11-1.076c0-1.023-0.338-2.425-1.013-4.201
			c0.208,0,0.399-7.935,0.563-23.815c0.396-5.96,0.925-9.985,1.584-12.068c0.997,0,1.674-0.43,2.03-1.294V7.115
			c0.677,0.358,1.197,0.533,1.574,0.533C118.49,7.648,118.601,7.438,118.601,7.008z"/>
		<path fill="#646868" d="M147.761,21.227c3.905,0,7.1,2.441,9.588,7.332c0.447,1.543,0.676,2.73,0.676,3.553
			c0,3.613-2.937,6.52-8.8,8.732v0.105c1.537,2.514,3.567,3.771,6.092,3.771c3.384,0,7.027-2.625,10.938-7.865
			c2.338-2.512,4.137-3.771,5.419-3.771h0.22l0.229,0.215v1.08l-0.112,0.428c0.074,0.236,0.219,0.377,0.449,0.43
			c0.466,0,0.803-0.395,1.013-1.183h0.223v0.105c0,1.224-1.124,3.237-3.377,6.038c-0.338,0.605-0.604,1.329-0.794,2.153
			c-1.055,0.2-1.575,0.593-1.575,1.181c-2.068,3.291-5.194,5.626-9.364,7.008c-1.236,0.29-2.334,0.43-3.269,0.43h-1.133
			c-5.508,0-10.96-3.807-16.347-11.418v-0.221l-0.567-8.512v-0.86c0-3.56,1.198-5.782,3.604-6.685
			C143.489,21.911,145.786,21.227,147.761,21.227z M144.259,31.79c0,2.152,0.638,3.666,1.921,4.523c0.886,0,2.195-0.648,3.95-1.934
			c0.294-0.83,0.449-1.549,0.449-2.163c0-2.202-1.015-3.718-3.047-4.524l-0.904-0.102c-1.126,0-1.694,0.358-1.694,1.074
			C144.486,29.399,144.259,30.441,144.259,31.79z"/>
	</g>
</g>
</svg>
